# xmcd
#
# Track frame offsets:
#	150
#	15780
#	31299
#	55032
#	76669
#	91622
#	106711
#	120207
#	141618
#
# Disc length: 2092 seconds
#
# Revision: 1
# Processed by: cddbd v1.5.1PL0 Copyright (c) Steve Scherf et al.
# Submitted via: audiograbber 1.83.01
#
DISCID=54082a09
DTITLE=Jóansøkan 80 ár - Dýrd
DYEAR=2005
DGENRE=Pop-Folk
TTITLE0=Brandur Enni - Words For You
TTITLE1=Tróndur Enni - My Love
TTITLE2=Sólfríð Bech - One Of Us
TTITLE3=Eyðun Ásason (Jacobsen) - Wish You Were Here
TTITLE4=Kristel Lisberg - Don't Worry
TTITLE5=Tróndur and Brandur Enni - Av Fólki Sum Tær
TTITLE6=Jonhild Nielsen - Mánin Hann Skein
TTITLE7=Guðrun Jacobsen - Tú Dregur Meg Sum Ein Magnetur
TTITLE8=Pól Arni Holm - Kirsten Pils Kilde
EXTD=
EXTT0=
EXTT1=
EXTT2=
EXTT3=
EXTT4=
EXTT5=
EXTT6=
EXTT7=
EXTT8=
PLAYORDER=
